<svg xmlns="http://www.w3.org/2000/svg" width="480" height="600" viewBox="0 0 480 600" role="img" aria-label="DEMO PILOT QR code: Menlyn Park Entrance 13 (Lower First Level)">
  <title>DEMO / PILOT QR — Menlyn Park · Entrance 13 (Lower First Level)</title>
  <rect width="480" height="600" fill="#ffffff"/>
  <rect x="12" y="12" width="456" height="576" fill="none" stroke="#111827" stroke-width="3" stroke-dasharray="10 6"/>
  <text x="240" y="52" text-anchor="middle" font-family="Inter, Arial, sans-serif" font-size="22" font-weight="700" fill="#b91c1c">DEMO / PILOT QR — NOT OFFICIAL SIGNAGE</text>
  <text x="240" y="82" text-anchor="middle" font-family="Inter, Arial, sans-serif" font-size="18" font-weight="600" fill="#111827">Menlyn Park · Entrance 13 (Lower First Level)</text>
  <svg x="80" y="100" width="320" height="320" viewBox="0 0 45 45" shape-rendering="crispEdges"><path fill="#ffffff" d="M0 0h45v45H0z"/><path stroke="#000000" d="M2 2.5h7m2 0h1m3 0h1m3 0h3m1 0h1m1 0h1m4 0h1m2 0h2m1 0h7M2 3.5h1m5 0h1m3 0h1m1 0h2m1 0h1m1 0h1m7 0h3m4 0h1m1 0h1m5 0h1M2 4.5h1m1 0h3m1 0h1m1 0h3m1 0h2m3 0h5m5 0h2m5 0h1m1 0h3m1 0h1M2 5.5h1m1 0h3m1 0h1m1 0h1m1 0h2m2 0h2m3 0h1m1 0h1m1 0h1m1 0h3m1 0h2m3 0h1m1 0h3m1 0h1M2 6.5h1m1 0h3m1 0h1m1 0h3m2 0h1m4 0h4m1 0h1m1 0h1m2 0h5m1 0h1m1 0h3m1 0h1M2 7.5h1m5 0h1m1 0h8m4 0h2m5 0h1m6 0h1m5 0h1M2 8.5h7m1 0h1m1 0h1m1 0h1m1 0h1m1 0h1m1 0h1m1 0h1m1 0h1m1 0h1m1 0h1m1 0h1m1 0h1m1 0h1m1 0h7M10 9.5h1m3 0h4m2 0h1m2 0h2m1 0h1m1 0h1m1 0h1m2 0h2M2 10.5h1m1 0h5m2 0h1m1 0h2m2 0h1m1 0h1m2 0h1m1 0h1m1 0h3m2 0h1m1 0h1m2 0h5M2 11.5h2m3 0h1m1 0h2m3 0h1m3 0h8m4 0h1m1 0h7m1 0h3M2 12.5h1m1 0h1m2 0h4m3 0h2m1 0h1m4 0h3m1 0h1m2 0h2m1 0h1m1 0h2m1 0h2M2 13.5h2m3 0h1m1 0h1m1 0h6m1 0h1m1 0h1m2 0h1m1 0h1m2 0h3m2 0h4m2 0h1M2 14.5h2m1 0h1m1 0h5m4 0h1m1 0h2m2 0h1m1 0h2m1 0h2m1 0h2m1 0h1m5 0h2m1 0h1M5 15.5h2m2 0h3m4 0h5m2 0h1m1 0h1m2 0h1m1 0h1m2 0h10M4 16.5h2m1 0h2m2 0h2m1 0h1m2 0h1m4 0h3m4 0h1m1 0h2m1 0h2m1 0h2M2 17.5h4m3 0h1m1 0h2m1 0h1m3 0h1m4 0h2m1 0h1m1 0h1m1 0h1m1 0h2m2 0h1m1 0h2M2 18.5h2m1 0h2m1 0h2m5 0h1m1 0h1m1 0h1m4 0h1m1 0h6m3 0h1m1 0h1m2 0h1m1 0h1M4 19.5h2m6 0h1m1 0h3m1 0h1m1 0h3m2 0h1m1 0h2m1 0h5m1 0h4m1 0h2M2 20.5h2m2 0h3m1 0h2m1 0h2m1 0h3m1 0h1m1 0h1m1 0h1m4 0h2m4 0h1m2 0h2M2 21.5h1m2 0h3m1 0h1m1 0h1m3 0h3m10 0h1m6 0h2m1 0h2m1 0h2M3 22.5h2m2 0h3m4 0h3m1 0h1m1 0h2m1 0h7m1 0h2m4 0h1m2 0h1m1 0h1M2 23.5h1m3 0h1m2 0h2m1 0h1m1 0h2m3 0h1m1 0h3m1 0h1m1 0h1m2 0h1m2 0h1m1 0h5m1 0h2M2 24.5h2m1 0h2m1 0h2m1 0h1m1 0h1m5 0h1m2 0h1m1 0h1m2 0h4m1 0h1m1 0h1m1 0h1m1 0h2M2 25.5h1m1 0h1m1 0h2m4 0h3m2 0h2m3 0h2m1 0h1m4 0h1m3 0h6m2 0h1M2 26.5h1m2 0h6m3 0h3m2 0h1m1 0h1m2 0h1m1 0h3m2 0h1m3 0h1m1 0h1m2 0h2M3 27.5h1m1 0h1m1 0h1m1 0h1m2 0h1m5 0h2m1 0h3m1 0h1m4 0h1m1 0h2m1 0h5m1 0h2M2 28.5h1m1 0h1m2 0h5m1 0h1m3 0h1m4 0h3m2 0h3m2 0h1m1 0h2m2 0h1m2 0h1M2 29.5h2m5 0h1m1 0h1m2 0h2m2 0h1m1 0h5m4 0h2m1 0h3m2 0h1m1 0h1m1 0h2M2 30.5h1m1 0h1m3 0h1m2 0h3m1 0h3m1 0h2m4 0h1m1 0h2m2 0h1m1 0h1m5 0h2M2 31.5h2m1 0h3m1 0h2m1 0h2m3 0h3m2 0h1m1 0h2m5 0h1m1 0h10M2 32.5h1m3 0h1m1 0h1m1 0h3m5 0h1m2 0h1m2 0h1m2 0h1m1 0h4m2 0h2m2 0h2M2 33.5h1m1 0h1m4 0h1m6 0h3m1 0h4m9 0h7M2 34.5h1m1 0h1m1 0h1m1 0h1m4 0h1m2 0h1m1 0h2m1 0h2m1 0h2m1 0h14m1 0h1M10 35.5h2m1 0h1m1 0h3m1 0h5m1 0h2m1 0h1m1 0h1m1 0h3m3 0h5M2 36.5h7m3 0h1m1 0h1m4 0h1m3 0h1m2 0h1m2 0h1m2 0h3m1 0h1m1 0h1m1 0h2M2 37.5h1m5 0h1m1 0h1m1 0h6m1 0h2m1 0h3m3 0h1m1 0h1m2 0h2m3 0h2m1 0h2M2 38.5h1m1 0h3m1 0h1m1 0h1m1 0h1m1 0h5m2 0h1m1 0h1m2 0h2m1 0h1m1 0h2m1 0h5m1 0h2M2 39.5h1m1 0h3m1 0h1m1 0h1m2 0h1m1 0h4m1 0h3m1 0h2m2 0h1m2 0h1m1 0h1m1 0h1m1 0h1m1 0h4M2 40.5h1m1 0h3m1 0h1m1 0h5m1 0h5m1 0h2m4 0h2m3 0h6m1 0h1M2 41.5h1m5 0h1m3 0h1m1 0h1m3 0h2m1 0h4m1 0h1m2 0h1m2 0h1m1 0h1m1 0h1m1 0h2m1 0h1M2 42.5h7m1 0h1m1 0h2m1 0h4m1 0h2m2 0h4m1 0h1m1 0h1m1 0h1m1 0h1m1 0h4"/></svg>
  <text x="240" y="452" text-anchor="middle" font-family="Inter, Arial, sans-serif" font-size="15" fill="#111827">Scan to start MallMind from this point</text>
  <text x="240" y="478" text-anchor="middle" font-family="Inter, Arial, sans-serif" font-size="12" fill="#374151">source-backed · unscaled · not field verified</text>
  <text x="240" y="504" text-anchor="middle" font-family="Inter, Arial, sans-serif" font-size="12" fill="#374151">Your position is not tracked. Distances only where measured.</text>
  <text x="240" y="540" text-anchor="middle" font-family="ui-monospace, Menlo, monospace" font-size="10.5" fill="#6b7280">https://mallmind-navigator.lovable.app/navigate?mall=menlyn-park&amp;start=menlyn-lf-entrance-13&amp;via=qr</text>
  <text x="240" y="566" text-anchor="middle" font-family="Inter, Arial, sans-serif" font-size="11" fill="#6b7280">MallMind controlled pilot · anchor menlyn-lf-entrance-13 · mall menlyn-park</text>
</svg>
